<?xml version="1.0" encoding="UTF-8"?>
<svg id="Layer_2" xmlns="http://www.w3.org/2000/svg" version="1.1" viewBox="0 0 3.8 3.8">
  <!-- Generator: Adobe Illustrator 30.0.0, SVG Export Plug-In . SVG Version: 2.1.1 Build 123)  -->
  <defs>
    <style>
      .st0 {
        isolation: isolate;
      }

      .st1 {
        fill: #1a1a1a;
      }

      .st2 {
        fill: #c3ddf2;
      }
    </style>
  </defs>
  <g id="Layer_1-2">
    <circle class="st2" cx="1.9" cy="1.9" r="1.9"/>
    <g class="st0">
      <g class="st0">
        <path class="st1" d="M1.1.8h0s.3,0,.3,0l.6,1.8.6-1.8h.3s0,0,0,0v2.1h0s-.4,0-.4,0h0s0,0,0,0V.9l-.5,1.7v.3c0,0-.1,0-.1,0L1.2.9v1.7c0,.2.1.3.3.3h0s0,0,0,0h-.4s0,0,0,0V.8Z"/>
      </g>
    </g>
  </g>
</svg>