<?xml version="1.0" encoding="UTF-8"?>
<svg id="Layer_2" data-name="Layer 2" xmlns="http://www.w3.org/2000/svg" viewBox="0 0 1088.97 705.8">
  <defs>
    <style>
      .cls-1 {
        fill: #f2ceeb;
      }
    </style>
  </defs>
  <g id="Layer_1-2" data-name="Layer 1">
    <path class="cls-1" d="M1064.88,433.4c-18.37-50.31,1.65-92.95,9.28-145.48,7.62-52.53,22.6-94.34,9.68-146.01-12.93-51.68-53.46-101.59-111-111.82-52.27-9.29-103.7,15.06-155.67,25.65-73.66,15.01-151.48,1.94-221.6-23.38-32.42-11.71-64.23-26.15-98.78-30.71-56.99-7.54-113.42,12.5-167.68,29.95-39.62,12.74-81.49,24.45-123.09,18.88-31.58-4.23-73.53-26.71-104.34-18.57C43.8,47.18,29.87,68.42,11.69,107.99c-13.16,28.65-14.81,86.35-6.98,114.7,7.83,28.36,29,83.14,25.17,130.3-7.58,93.33-43.49,102.38-18.89,192.72,16.22,59.56,27.42,115.41,91.66,135.23,64.25,19.82,79.66,25.61,147.54,24.77,39.41-.49,113.93-38.03,165.63-42.51,42.86-3.71,142.42,34.46,185.22,38.33,86.1,7.78,192.78-51.05,277.46-34.95,18.01,3.42,91.42,14.68,109.82,14.31,32.76-.65,80.29-30.42,92.11-68.74,22.81-73.97-6.34-153.54-15.55-178.77Z"/>
  </g>
</svg>