<?xml version="1.0" encoding="UTF-8"?>
<svg id="Layer_2" data-name="Layer 2" xmlns="http://www.w3.org/2000/svg" viewBox="0 0 300.44 378.06">
  <defs>
    <style>
      .cls-1 {
        fill: #efcee3;
      }
    </style>
  </defs>
  <g id="Layer_1-2" data-name="Layer 1">
    <path class="cls-1" d="M194.29,2.3c-15.61,2.46-36.8,5.79-51.99,9.86-10.13,2.72-20.69,1.11-30.99-.51-22.36-3.52-57.46-8.92-69.9-4.61C20.27,12.92,10.79,27.98,13.81,48.18c2.18,14.57,1.34,44.09-5.42,58.75-11.91,25.84-4.41,77.16,1.82,104.58,5.2,22.89,6.49,73.91-4.81,94.12-11.71,20.95-1.89,42.96,6.08,53.26,12.96,16.74,48.44,22.32,79.23,17.52,35.12-5.48,73.58-14.04,98.29-12.58,31.83,1.88,37.38,14.44,68.41,6.45,11.05-2.84,22.6-6.31,30.85-15.48,12.65-14.08,13.87-37.51,10.71-57.73-3.17-20.22-9.83-39.88-9.82-60.45,0-21.21,7.13-28.59,9-49.69,1.16-13.14,2.27-36.1,1.38-49.27-2.24-33.03-21.6-53.41-15.71-77.52,3.29-13.48,6.99-21.71-6.18-42.29C265.34-1.38,223.41-2.29,194.29,2.3Z"/>
  </g>
</svg>