<svg width="64" height="57" viewBox="0 0 64 57" fill="none" xmlns="http://www.w3.org/2000/svg">
<path d="M16.6195 44.1635C16.6195 44.1635 18.4651 42.6573 19.7732 41.2502C22.241 38.5986 24.1714 36.8096 26.6746 33.7549C32.8123 26.2737 38.6883 21.628 42.6057 18.1773C43.9704 16.9823 47.7322 13.0508 47.7322 13.0508" stroke="#1A1A1A" stroke-width="4" stroke-miterlimit="10" stroke-linecap="round"/>
<path d="M47.1196 43.4535C47.1196 43.4535 45.1256 41.5584 42.9548 39.0058C40.5294 36.1561 37.5171 32.96 35.0634 30.9872C33.3664 29.6154 27.8934 24.5242 25.8852 21.9786C24.6124 20.3664 21.3244 17.7148 18.9343 15.0136C17.4423 13.3236 16.014 12.3478 16.014 12.3478" stroke="#1A1A1A" stroke-width="4" stroke-miterlimit="10" stroke-linecap="round"/>
</svg>
