<svg width="393" height="435" viewBox="0 0 393 435" fill="none" xmlns="http://www.w3.org/2000/svg">
<path d="M23.251 366.5C41.3224 366.5 56.002 381.258 56.002 399.5C56.002 417.742 41.3224 432.5 23.251 432.5C5.17964 432.5 -9.5 417.742 -9.5 399.5C-9.5 381.258 5.17964 366.5 23.251 366.5Z" fill="#FFFDF8" stroke="#C3DDF2" stroke-width="5"/>
<path d="M327.106 366.5C345.178 366.5 359.857 381.258 359.857 399.5C359.857 417.742 345.178 432.5 327.106 432.5C309.035 432.5 294.355 417.742 294.355 399.5C294.355 381.258 309.035 366.5 327.106 366.5Z" fill="#FFFDF8" stroke="#C3DDF2" stroke-width="5"/>
<path d="M124.536 366.5C142.608 366.5 157.287 381.258 157.287 399.5C157.287 417.742 142.608 432.5 124.536 432.5C106.465 432.5 91.7852 417.742 91.7852 399.5C91.7852 381.258 106.465 366.5 124.536 366.5Z" fill="#FFFDF8" stroke="#C3DDF2" stroke-width="5"/>
<path d="M73.8936 357.5C91.965 357.5 106.645 372.258 106.645 390.5C106.645 408.742 91.965 423.5 73.8936 423.5C55.8222 423.5 41.1426 408.742 41.1426 390.5C41.1426 372.258 55.8222 357.5 73.8936 357.5Z" fill="#FFFDF8" stroke="#C3DDF2" stroke-width="5"/>
<path d="M225.821 366.5C243.892 366.5 258.572 381.258 258.572 399.5C258.572 417.742 243.892 432.5 225.821 432.5C207.75 432.5 193.07 417.742 193.07 399.5C193.07 381.258 207.75 366.5 225.821 366.5Z" fill="#FFFDF8" stroke="#C3DDF2" stroke-width="5"/>
<path d="M175.178 357.5C193.25 357.5 207.929 372.258 207.929 390.5C207.929 408.742 193.25 423.5 175.178 423.5C157.107 423.5 142.427 408.742 142.427 390.5C142.427 372.258 157.107 357.5 175.178 357.5Z" fill="#FFFDF8" stroke="#C3DDF2" stroke-width="5"/>
<path d="M276.464 357.5C294.535 357.5 309.215 372.258 309.215 390.5C309.215 408.742 294.535 423.5 276.464 423.5C258.392 423.5 243.713 408.742 243.713 390.5C243.713 372.258 258.392 357.5 276.464 357.5Z" fill="#FFFDF8" stroke="#C3DDF2" stroke-width="5"/>
<path d="M377.749 357.5C395.82 357.5 410.5 372.258 410.5 390.5C410.5 408.742 395.82 423.5 377.749 423.5C359.677 423.5 344.998 408.742 344.998 390.5C344.998 372.258 359.677 357.5 377.749 357.5Z" fill="#FFFDF8" stroke="#C3DDF2" stroke-width="5"/>
<path d="M66.8935 2.5C84.6293 2.5 99.6445 19.4521 99.6445 41.2139C99.6444 62.9755 84.6292 79.9277 66.8935 79.9277C49.1579 79.9276 34.1426 62.9755 34.1425 41.2139C34.1425 19.4522 49.1578 2.50012 66.8935 2.5Z" fill="#FFFDF8" stroke="#C3DDF2" stroke-width="5"/>
<path d="M16.251 10.6265C33.9867 10.6265 49.002 27.5786 49.002 49.3403C49.0019 71.102 33.9867 88.0542 16.251 88.0542C-1.48466 88.0541 -16.4999 71.1019 -16.5 49.3403C-16.5 27.5787 -1.4847 10.6266 16.251 10.6265Z" fill="#FFFDF8" stroke="#C3DDF2" stroke-width="5"/>
<path d="M168.179 2.5C185.914 2.5 200.93 19.4521 200.93 41.2139C200.929 62.9755 185.914 79.9277 168.179 79.9277C150.443 79.9276 135.428 62.9755 135.428 41.2139C135.428 19.4522 150.443 2.50012 168.179 2.5Z" fill="#FFFDF8" stroke="#C3DDF2" stroke-width="5"/>
<path d="M117.536 10.6265C135.272 10.6265 150.287 27.5786 150.287 49.3403C150.287 71.102 135.272 88.0542 117.536 88.0542C99.8005 88.0541 84.7852 71.1019 84.7852 49.3403C84.7852 27.5787 99.8005 10.6266 117.536 10.6265Z" fill="#FFFDF8" stroke="#C3DDF2" stroke-width="5"/>
<path d="M269.464 2.5C287.199 2.5 302.215 19.4521 302.215 41.2139C302.215 62.9755 287.199 79.9277 269.464 79.9277C251.728 79.9276 236.713 62.9755 236.713 41.2139C236.713 19.4522 251.728 2.50012 269.464 2.5Z" fill="#FFFDF8" stroke="#C3DDF2" stroke-width="5"/>
<path d="M218.821 10.6265C236.557 10.6265 251.572 27.5786 251.572 49.3403C251.572 71.102 236.557 88.0542 218.821 88.0542C201.085 88.0541 186.07 71.1019 186.07 49.3403C186.07 27.5787 201.085 10.6266 218.821 10.6265Z" fill="#FFFDF8" stroke="#C3DDF2" stroke-width="5"/>
<path d="M370.749 2.5C388.484 2.5 403.5 19.4521 403.5 41.2139C403.499 62.9755 388.484 79.9277 370.749 79.9277C353.013 79.9276 337.998 62.9755 337.998 41.2139C337.998 19.4522 353.013 2.50012 370.749 2.5Z" fill="#FFFDF8" stroke="#C3DDF2" stroke-width="5"/>
<path d="M320.106 10.6265C337.842 10.6265 352.857 27.5786 352.857 49.3403C352.857 71.102 337.842 88.0542 320.106 88.0542C302.371 88.0541 287.355 71.1019 287.355 49.3403C287.355 27.5787 302.371 10.6266 320.106 10.6265Z" fill="#FFFDF8" stroke="#C3DDF2" stroke-width="5"/>
<rect width="394" height="377" transform="translate(0 29)" fill="#FFFDF8"/>
</svg>
