<svg width="1280" height="528" viewBox="0 0 1280 528" fill="none" xmlns="http://www.w3.org/2000/svg">
<path d="M93.6562 390C122.83 390 149.013 397.746 167.751 410.005C186.533 422.293 197.313 438.693 197.313 456.087C197.313 473.481 186.533 489.881 167.751 502.169C149.013 514.428 122.83 522.175 93.6562 522.175C64.4825 522.175 38.3007 514.428 19.5625 502.169C0.780127 489.881 -10 473.481 -10 456.087C-9.99987 438.693 0.78024 422.293 19.5625 410.005C38.3007 397.746 64.4826 390 93.6562 390Z" fill="#FFFDF8" stroke="#C3DDF2" stroke-width="10"/>
<path d="M1030.25 390.021C1059.42 390.021 1085.6 397.767 1104.34 410.026C1123.12 422.314 1133.9 438.715 1133.9 456.108C1133.9 473.502 1123.12 489.902 1104.34 502.19C1085.6 514.45 1059.42 522.196 1030.25 522.196C1001.07 522.196 974.89 514.45 956.152 502.19C937.369 489.902 926.589 473.502 926.589 456.108C926.589 438.715 937.369 422.314 956.152 410.026C974.89 397.767 1001.07 390.022 1030.25 390.021Z" fill="#FFFDF8" stroke="#C3DDF2" stroke-width="10"/>
<path d="M405.853 390.021C435.026 390.021 461.209 397.767 479.947 410.026C498.73 422.314 509.51 438.715 509.51 456.108C509.51 473.502 498.73 489.902 479.947 502.19C461.209 514.45 435.026 522.196 405.853 522.196C376.679 522.196 350.497 514.45 331.759 502.19C312.976 489.902 302.196 473.502 302.196 456.108C302.196 438.715 312.977 422.314 331.759 410.026C350.497 397.767 376.679 390.022 405.853 390.021Z" fill="#FFFDF8" stroke="#C3DDF2" stroke-width="10"/>
<path d="M249.754 372C278.928 372 305.111 379.746 323.849 392.005C342.631 404.293 353.411 420.693 353.412 438.087C353.412 455.481 342.631 471.881 323.849 484.169C305.111 496.428 278.928 504.175 249.754 504.175C220.581 504.175 194.399 496.428 175.661 484.169C156.878 471.881 146.098 455.481 146.098 438.087C146.098 420.693 156.878 404.293 175.661 392.005C194.399 379.746 220.581 372 249.754 372Z" fill="#FFFDF8" stroke="#C3DDF2" stroke-width="10"/>
<path d="M718.049 390.021C747.223 390.021 773.405 397.767 792.144 410.026C810.926 422.314 821.706 438.715 821.706 456.108C821.706 473.502 810.926 489.902 792.144 502.19C773.405 514.45 747.223 522.196 718.049 522.196C688.875 522.196 662.694 514.45 643.955 502.19C625.173 489.902 614.393 473.502 614.393 456.108C614.393 438.715 625.173 422.314 643.955 410.026C662.694 397.767 688.875 390.022 718.049 390.021Z" fill="#FFFDF8" stroke="#C3DDF2" stroke-width="10"/>
<path d="M561.95 372C591.124 372 617.307 379.746 636.045 392.005C654.827 404.293 665.607 420.693 665.607 438.087C665.607 455.481 654.827 471.881 636.045 484.169C617.307 496.428 591.124 504.175 561.95 504.175C532.776 504.175 506.595 496.428 487.856 484.169C469.074 471.881 458.294 455.481 458.294 438.087C458.294 420.693 469.074 404.293 487.856 392.005C506.595 379.746 532.777 372 561.95 372Z" fill="#FFFDF8" stroke="#C3DDF2" stroke-width="10"/>
<path d="M874.148 372C903.322 372 929.504 379.746 948.242 392.005C967.025 404.293 977.805 420.693 977.805 438.087C977.805 455.481 967.025 471.881 948.242 484.169C929.504 496.428 903.322 504.175 874.148 504.175C844.974 504.175 818.792 496.428 800.054 484.169C781.272 471.881 770.491 455.481 770.491 438.087C770.492 420.693 781.272 404.293 800.054 392.005C818.792 379.746 844.974 372 874.148 372Z" fill="#FFFDF8" stroke="#C3DDF2" stroke-width="10"/>
<path d="M1186.34 372C1215.52 372 1241.7 379.746 1260.44 392.005C1279.22 404.293 1290 420.693 1290 438.087C1290 455.481 1279.22 471.881 1260.44 484.169C1241.7 496.428 1215.52 504.175 1186.34 504.175C1157.17 504.175 1130.99 496.428 1112.25 484.169C1093.47 471.881 1082.69 455.481 1082.69 438.087C1082.69 420.693 1093.47 404.293 1112.25 392.005C1130.99 379.746 1157.17 372 1186.34 372Z" fill="#FFFDF8" stroke="#C3DDF2" stroke-width="10"/>
<path d="M249.754 5C278.903 5 305.068 12.9368 323.8 25.5068C342.565 38.0984 353.411 54.954 353.412 72.9111C353.412 90.8684 342.565 107.725 323.8 120.316C305.068 132.886 278.903 140.823 249.754 140.823C220.606 140.823 194.441 132.887 175.708 120.316C156.944 107.725 146.098 90.8684 146.098 72.9111C146.098 54.954 156.944 38.0984 175.708 25.5068C194.441 12.9367 220.606 5.00005 249.754 5Z" fill="#FFFDF8" stroke="#C3DDF2" stroke-width="10"/>
<path d="M93.6562 19.377C122.805 19.377 148.969 27.3137 167.702 39.8838C186.467 52.4754 197.313 69.3309 197.313 87.2881C197.313 105.245 186.467 122.102 167.702 134.693C148.969 147.263 122.805 155.2 93.6562 155.2C64.5077 155.2 38.343 147.264 19.6104 134.693C0.845664 122.102 -10 105.245 -10 87.2881C-9.99982 69.331 0.845841 52.4753 19.6104 39.8838C38.343 27.3136 64.5077 19.377 93.6562 19.377Z" fill="#FFFDF8" stroke="#C3DDF2" stroke-width="10"/>
<path d="M561.95 5C591.099 5 617.264 12.9368 635.996 25.5068C654.761 38.0984 665.607 54.954 665.608 72.9111C665.608 90.8684 654.761 107.725 635.996 120.316C617.264 132.886 591.099 140.823 561.95 140.823C532.802 140.823 506.637 132.887 487.905 120.316C469.14 107.725 458.294 90.8684 458.294 72.9111C458.294 54.954 469.14 38.0984 487.905 25.5068C506.637 12.9367 532.802 5.00005 561.95 5Z" fill="#FFFDF8" stroke="#C3DDF2" stroke-width="10"/>
<path d="M405.854 19.377C435.002 19.377 461.167 27.3137 479.9 39.8838C498.664 52.4754 509.511 69.3309 509.511 87.2881C509.511 105.245 498.664 122.102 479.9 134.693C461.167 147.263 435.002 155.2 405.854 155.2C376.705 155.2 350.541 147.264 331.808 134.693C313.043 122.102 302.198 105.245 302.198 87.2881C302.198 69.331 313.043 52.4753 331.808 39.8838C350.541 27.3136 376.705 19.377 405.854 19.377Z" fill="#FFFDF8" stroke="#C3DDF2" stroke-width="10"/>
<path d="M874.147 5C903.295 5 929.46 12.9368 948.193 25.5068C966.957 38.0984 977.804 54.954 977.804 72.9111C977.804 90.8684 966.957 107.725 948.193 120.316C929.46 132.886 903.295 140.823 874.147 140.823C844.998 140.823 818.833 132.887 800.101 120.316C781.336 107.725 770.49 90.8684 770.49 72.9111C770.491 54.954 781.336 38.0984 800.101 25.5068C818.833 12.9367 844.998 5.00005 874.147 5Z" fill="#FFFDF8" stroke="#C3DDF2" stroke-width="10"/>
<path d="M718.049 19.377C747.197 19.377 773.362 27.3137 792.094 39.8838C810.859 52.4754 821.706 69.3309 821.706 87.2881C821.706 105.245 810.859 122.102 792.094 134.693C773.362 147.263 747.197 155.2 718.049 155.2C688.9 155.2 662.735 147.264 644.003 134.693C625.238 122.102 614.392 105.245 614.392 87.2881C614.393 69.331 625.238 52.4753 644.003 39.8838C662.735 27.3136 688.9 19.377 718.049 19.377Z" fill="#FFFDF8" stroke="#C3DDF2" stroke-width="10"/>
<path d="M1186.34 5C1215.49 5 1241.66 12.9368 1260.39 25.5068C1279.15 38.0984 1290 54.954 1290 72.9111C1290 90.8684 1279.15 107.725 1260.39 120.316C1241.66 132.886 1215.49 140.823 1186.34 140.823C1157.19 140.823 1131.03 132.887 1112.3 120.316C1093.53 107.725 1082.69 90.8684 1082.69 72.9111C1082.69 54.954 1093.53 38.0984 1112.3 25.5068C1131.03 12.9367 1157.19 5.00005 1186.34 5Z" fill="#FFFDF8" stroke="#C3DDF2" stroke-width="10"/>
<path d="M1030.25 19.377C1059.39 19.377 1085.56 27.3137 1104.29 39.8838C1123.06 52.4754 1133.9 69.3309 1133.9 87.2881C1133.9 105.245 1123.06 122.102 1104.29 134.693C1085.56 147.263 1059.39 155.2 1030.25 155.2C1001.1 155.2 974.932 147.264 956.2 134.693C937.435 122.102 926.589 105.245 926.589 87.2881C926.59 69.331 937.435 52.4753 956.2 39.8838C974.932 27.3136 1001.1 19.377 1030.25 19.377Z" fill="#FFFDF8" stroke="#C3DDF2" stroke-width="10"/>
<rect width="1290" height="388" transform="translate(-5 67)" fill="#FFFDF8"/>
</svg>
