<?xml version="1.0" encoding="UTF-8"?>
<svg id="Layer_2" data-name="Layer 2" xmlns="http://www.w3.org/2000/svg" viewBox="0 0 1276.44 1878.2">
  <defs>
    <style>
      .cls-1 {
        fill: none;
        stroke: #1a1a1a;
        stroke-linecap: round;
        stroke-linejoin: round;
        stroke-width: 20px;
      }
    </style>
  </defs>
  <g id="Layer_2-2" data-name="Layer 2">
    <path class="cls-1" d="M83.36,1868.2c129.24-367.03,321.02-719.42,591.05-996.09,66.04-67.66,133.45-130.19,208.63-188,114.06-87.72,281.41-199.72,357.94-321.56,75.81-120.69-42.08-353.59-39.01-352.55,110.44,37.78,2.21,184.04-63,232.54-73.2,54.44-102.09,174.64-77.91,262.6,2.9,10.55,6.98,21.53,4.27,32.13-2.76,10.83-11.95,18.62-20.63,25.66-95.81,77.68-94.4,129.41-285.98,227.74-3.88,1.99-21.75-221.17,88.08-331,32.4-32.4,54.83-46.33,80.14-84.52,45.27-68.29,12.12-196.94,8.52-196.94,45.33,21.89,64.01,139.32,56.96,228.22-9.18,115.81-76.32,234.6-158.51,316.95-45.88,45.96-105.48,90.18-142.44,131.65-1.92,2.16,104.54-82.71,169.98-85.76,65.44-3.05,131.04,14.96,196.07,7.06,69.14-8.41,133.98-47.49,173.7-104.71-18.37,93.91-101.76,165.32-193.42,192.82-91.66,27.5-190.33,17.91-284.15-.96-35.48-7.14-86.6,21.54-91.22,17.51-75.44-65.81-85.37-245.02-69.38-302,27.45-97.82,174.24-223.15,105.18-288.68-2.2-2.09-26.25,126.67,14.06,217.37,35.08,78.94,26.5,203.5.18,285.19-13.87,43.04-33.92,75.49-65,108.34-45.73,48.33-115.51,11.47-130.53,160.76-.66,6.59,71.94-26.59,107.05-21.1,35.11,5.49,68.51,19.35,103.64,24.68,108.56,16.45,255.99-163.08,252.98-160.64-40.03,32.47-133.93,45.41-213.15,36.48-22.67-2.56-71.11-10.19-92.58-5.19-58.17,13.54-116.33,46.53-141.86,100.52-25.52,53.99-98.8,134.78-103.07,126.81-97.75-182.53-14.92-488.75,125.13-544.41,5.09-2.02-52.32,97.89-46.26,153.21,6.06,55.32,29.11,97.9,27.26,153.52-3.02,91.06-135.08,301.2-133.09,299.02,40.9-44.88,112.9-97.37,176.36-83.92,63.46,13.45,117.79,25.37,182.59,22.4,56.67-2.59,181.78-25.56,159.11-80-3.31-7.96-200.37,204.72-319.27,163.67-35.34-12.2-68.03-32.56-104.79-39.43-25.53-4.77-58.69-5.42-84.65,10.97-62.34,39.35-111.98,124.1-112.63,123.45-73.55-73.55-130.8-222.44-94.72-363.69,13.25-51.89,95.26-184.81,94.05-181.5-35.44,96.77-19.27,124.86,10.52,179.46,31.42,57.59,31.19,116.69,39.25,178.36,15.96,122.24-119.75,299.57-119.75,353.54,0,4.67,113.33-122.57,189.75-117.04,53.84,3.89,104.04,29.26,157.59,36.08,53.55,6.82,131.95-68.58,131.84-66.91-4.31,68.61-75.98,150.66-155.32,174.3-79.34,23.64-165.38,9.99-243.89-16.26-21.09-7.05-42.75-15.11-64.88-12.98-35.32,3.4-53.76,36.76-70.9,67.83-17.99,32.61-26.36,118.23-26.82,116.52-14.94-55.63-61.74-104.32-96.33-153.35-17.25-24.46-24.8-54.28-31.25-83.5-28.32-128.34,16.16-263.23,63-370.41,1.35-3.09-25.82,114.31-2.82,168.3,23.01,53.98,58.81,102.12,78.32,157.47,51.55,146.25-19.48,304.51-74.02,460Z"/>
  </g>
</svg>