<?xml version="1.0" encoding="UTF-8"?>
<svg id="Layer_2" data-name="Layer 2" xmlns="http://www.w3.org/2000/svg" viewBox="0 0 114.73 65.78">
  <defs>
    <style>
      .cls-1 {
        fill: #c7bede;
        stroke: #6e6e6e;
        stroke-miterlimit: 10;
      }
    </style>
  </defs>
  <g id="Layer_1-2" data-name="Layer 1">
    <path class="cls-1" d="M76.04,1.1c-6.18.4-14.57.97-20.59,1.62-10.67,1.15-19.64-.81-27.01-1.67-7.5-.88-13.34-.65-16.95.33C-.51,4.63,7.34,12.28,2.41,18.26c-4.04,4.89-.61,12.2.72,17.15,2.78,10.32-4.94,15.73.51,24.17,3.15,4.89,18.19,5.66,30.38,4.87,13.91-.9,25.35-3.27,35.13-3.03,12.61.31,21.39,5.14,31.89,3.53,20.26-3.11,7.52-15.49,10.57-24.42,5.35-15.66.96-10.89.39-22.44-.18-3.68,2.27-11.06-2.95-14.44-4.87-3.15-21.48-3.3-33.01-2.55Z"/>
  </g>
</svg>