<?xml version="1.0" encoding="UTF-8"?>
<svg id="Layer_2" data-name="Layer 2" xmlns="http://www.w3.org/2000/svg" viewBox="0 0 1620 1915.85">
  <defs>
    <style>
      .cls-1 {
        fill: none;
        stroke: #1a1a1a;
        stroke-linecap: round;
        stroke-linejoin: round;
        stroke-width: 20px;
      }
    </style>
  </defs>
  <g id="Layer_1-2" data-name="Layer 1">
    <path class="cls-1" d="M1159.13,1003.23c-211.34-44.98-375.35,110.12-590.81,93.75-65.59-4.98-141.1-38.93-148.89-104.25-6.64-55.64,40.14-103.18,88.24-131.94,80.51-48.14,173.68-70.06,259.31-108.35,40.22-17.99,84.22-48.3,83.45-92.35-.55-31.79-25.35-58.07-52.11-75.23-53.69-34.44-118.57-45.18-179.89-62.74-61.31-17.57-124.77-46.25-156.22-101.74-38.77-68.42-9.29-166.48,60.79-202.17,46.66-23.76,109.58-25.49,137.24-69.96,25.62-41.19,5.04-94.46-15.85-138.24,28.08,34.42,57.7,73.22,55.74,117.6-4.17,94.31-145.54,150.66-126.04,243.02,8.21,38.91,44.67,65.99,82.28,78.91,37.61,12.92,140.42,32.1,178.75,42.68,99.63,27.51,151.53,91.7,172.41,192.92,20.88,101.23,1.55,227.7-61.87,271.81-34.32,23.87-109.29-7.05-360.43,17.91-65.46,6.51-502.78,75.43-485.21,57.86,20.96-20.96,127.47-73.59,279.12-95.26,235.79-33.69,568.86-28.15,767.64,12.86,57.17,11.79,104.89,35.37,127.09,89.36,17.99,43.77,17.75,71.12-1.13,114.51-15.83,36.39-33.6,73.01-62.02,100.71-28.42,27.7-60.32,35.74-108.25,35.74,49.09-2.32,80.69-7.14,121.28-9.06,40.59-1.92,87.02,10.24,105.35,46.51,13.68,27.06,10.38,49.11-2.75,76.44-34.11,70.95-117.51,103.82-197.2,116.25,84.73-22.19,183.49,40.11,194.24,127.03,10.75,86.92-76.79,173.16-162.64,155.79-22.95-4.65-45.49-16.32-58.06-36.07-16.82-26.43-12.23-62.28,3.91-89.13,16.13-26.85,41.92-46.36,67.98-63.73,49.98-33.31,103.45-61.38,159.25-83.6,52.39-20.86,107.58-36.97,153.92-69.1,46.34-32.13,83.33-85.33,77.19-141.38-6.05-55.25-26.38-90.83-76.49-114.86-27.27-13.08-62.46-17.36-99.52-15.95-38.92,1.48-81.87,7.91-96.3.91-36.81-17.84-19.31-63.3,20.9-70.82,70.1-13.11,94.36-4.24,160.14,23.32,65.78,27.56,121.29,85.37,133.66,155.61,13.58,77.1-26.56,156.38-86.06,207.26-59.51,50.87-135.75,77.65-211.65,96.83-49.9,12.61-102.59,23.38-142.48,55.9-39.9,32.52-49.68,100.89,46.8,142.78-76.67,80.61-208.57,91.99-319.62,98.58-150.71,8.94-302.03,7.39-452.53-4.63-82.85-6.62-167.04-16.84-242.64-51.36-75.6-34.53-142.38-97.19-162.88-177.73-5.14-20.2-6.9-43.08,4.43-60.57,6.6-10.19,16.93-17.36,27.46-23.41,44.6-25.58,98.07-35.35,148.83-27.17-67.22-3.85-131.86-14.86-170.34-70.1-13.56-19.46-24.27-62.17-21.48-85.72,3.9-32.93,33.87-63.55,65.88-72.21,32.01-8.66,65.92-4.36,98.8,0-94.42,3.36-186.72-64.68-179.47-158.88.92-11.89,8.9-46.53,16.17-55.99,6.57-8.55,33.21-33.44,43.21-37.45,68.47-27.44,128.48,17.71,199.22,38.63,292.81,86.57,592.2,59.81,782.9,21.82"/>
  </g>
</svg>