<?xml version="1.0" encoding="UTF-8"?>
<svg id="Layer_2" data-name="Layer 2" xmlns="http://www.w3.org/2000/svg" viewBox="0 0 1898.42 1581.45">
  <defs>
    <style>
      .cls-1, .cls-2 {
        fill: none;
        stroke: #1a1a1a;
        stroke-miterlimit: 10;
        stroke-width: 8px;
      }

      .cls-2 {
        stroke-linecap: round;
      }
    </style>
  </defs>
  <g id="Baggrund_Image" data-name="Baggrund Image">
    <path class="cls-2" d="M1378.65,525.25c151.77,167.69,419.08-14.51,512.68-159.34,18.75-55.03-52.53-88.46-85.47-115.9-137.64-89.67-295.14,28.28-423.08,76.34-26.55-4.28-31.75-16.73-55.3-35.86-27.25-24-76.78-20.47-99.09-55.63-96.97,37.96,158.63,207.57,150.19,290.42"/>
    <path class="cls-2" d="M1403.02,553.41c.13-.22.47-.1.44.15-6.77,51.36-64.34,104.24-63.62,154.15-2.24,180.89-58.17,375.54-102.34,543.56-28.51,74.1,110.02,203.18,13.27,238.11-27.79,7.22-75.69,5.34-100.91,16.7-9.67,8.4-2.3,26.96-10.84,36.51-61.78,60.42-200.28,22.87-281.37,27.87-12.16-3.32-34.17-39.71-48.02-45.04-26.04-9.57-71.05,13.08-90.25-17.26-41.79-59.61-45.26-82.86-35.11-166.19,5.46-74.27,52.78-97.21,4.67-151.87-19.07-31.58-21.79-64.54-28.65-99.24-12.57-31.89-23.81-66.63-27.3-117.39-18.45-106.72-106.63-165.09-90.11-282.5,5.82-183.92-94.64-22.99-191.11-20.22-79.96,1.08-417.03-172.37-334.99-244.17,66.37-96.77,173.14-159.49,292.89-142.81,207.97-3.09,134.08,177.06,221.42,60.47,96.48-87.57,177.16-217.86,281.66-312.35,165.27-85.07,353.89,36.68,413.6,201.06-1.28,15.99-18.85,19.08-30.03,26.6-45.59,65.75-39,142.5-91.69,204.93-17.64,30.15-34.03,54.92-45.31,84.8-.95,39.48,24.96,83.66,28.32,121.11-15.65,123.39,22.46,273.06,176.48,199.34,44-40.77,19.16-131.99,35.67-185.87,23.73-32.39,82.79-94.4,103.26-130.44Z"/>
    <path class="cls-1" d="M1170.32,1491.11c36.38-18.42,28.78-57.12,23.89-82.27-9.21-22.5-6.73-80.65-47.53-42.59-7.4,54.84-89.58,63.7-60.28-3.3,72.97-54.63,105.66-180.43-30.68-158.65-89.12-9.23-169.31-8-255.99,18.93-62.45,78.24,62.68,123.91,84.27,179.14.61,50.98-74.79,33.17-85.1-.76,1.44-40.62-25.31-63.97-39.84-17.63-7.9,30.09,25.96,126.36,47.42,139.96,31.05,5.99,62.04-17.5,93.76-13.8,88.48-10,192.59,48.93,270.09-19.03Z"/>
    <path class="cls-1" d="M529.15,604.49c13.8-.97,51.19-16.59,54.69,9.25,12.63,37.11,34.62,69.63,55.32,102.21,30.55,59.64-19.72,151.76,23.67,188.01,109.34,35.86,171.11-164.4,181.38-249.26-2.57-17.95-20.36-69.43-20.64-88.74-11.88-30.43-21.27-47.35.42-76.52,19.65-53.4-102.82-190.84-140.31-229.65-48.48-63.93-170.42,96.47-194.35,144.76-16.89,54.09,10.83,88.19,25.91,135.81,5.53,73.11-10.7,64.02,58.3,58.88,12.86-3.61,28.64-14.34,40.69-21.81,33.23-38.17-32.68-76.27-65.55-50.36-11.75,3.03.77,16.67,3.14,23.39,9.65,27.34,11.97,44.75,42.59,24.27,8.34-14.72-8.49-29.19-13.37-41.99-2.86-15.86-15.26-14.37-29.26-7.07"/>
    <path class="cls-1" d="M1387,534.01c-31.26-32.44-54.06-22.89-87.19,6.08-26.54,29.44-5.67,106.49,40.75,71.28,10.94-11.82,14.77-35.47,5.91-49.29-30.56-12.51-37.34,35.85-31.77,56.68"/>
    <path class="cls-1" d="M665.01,246.33c-5.68,0-28.13-15.15-23.55-22.23"/>
  </g>
</svg>