<svg width="64" height="57" viewBox="0 0 64 57" fill="none" xmlns="http://www.w3.org/2000/svg">
<path d="M10 20.68C10 20.68 12.37 20.92 14.29 20.85C17.91 20.72 20.54 20.82 24.47 20.43C34.1 19.48 41.54 20.35 46.75 20.68C48.56 20.8 54 20.68 54 20.68" stroke="#FFFDF8" stroke-width="4" stroke-miterlimit="10" stroke-linecap="round"/>
<path d="M53.9998 36C53.9998 36 51.2498 36.07 47.9098 35.8C44.1798 35.5 39.7898 35.37 36.6598 35.71C34.4898 35.94 27.0198 36.21 23.7998 35.83C21.7598 35.59 17.5598 36.04 13.9598 35.82C11.7098 35.68 10.0098 36 10.0098 36" stroke="#FFFDF8" stroke-width="4" stroke-miterlimit="10" stroke-linecap="round"/>
</svg>
