<?xml version="1.0" encoding="UTF-8"?>
<svg id="Layer_2" data-name="Layer 2" xmlns="http://www.w3.org/2000/svg" viewBox="0 0 1933.12 1803.54">
  <defs>
    <style>
      .cls-1 {
        fill: #dcbb9e;
        stroke: #dcbb9e;
        stroke-linejoin: round;
        stroke-width: 5px;
      }
    </style>
  </defs>
  <g id="Layer_3" data-name="Layer 3">
    <path class="cls-1" d="M808.06,203.27C839.43,124.76,937.87,5.58,961.45,2.65c22.87-2.84,74.85,35.02,134.92,186.38,133.28,335.83,139,604,60.95,525.95-77.69-77.69,233.24-122.37,531.67-109.65,94.53,4.03,239.48,45.97,241.6,83.3,2.16,38.24-113.11,144.15-207.04,210.7-208.2,147.5-468.11,278.49-433.1,187.52,35.72-92.83,194.5,160.98,237.55,361.91,12.26,57.21,78.86,312.65,41.64,344.83-50.72,43.84-295.32-117.73-371.02-177.92-168.88-134.27-321.97-313.43-237.16-317.06,100.1-4.29-32.86,190.58-310.34,369.94-104.01,67.23-272.39,109.72-293.28,95.69-22.23-14.93-13.59-249.48,40.39-360.98,87.04-179.77,227.99-385.87,248.97-309,26.3,96.36-270.91-47.55-486.28-194.94C109.32,864.02-5.6,724.46,2.95,682.81c8.11-39.47,214.16-65.14,268.85-67.24,284.49-10.9,577.24,22.26,491.77,91.95-60.51,49.34-60.95-240.41,44.49-504.25Z"/>
  </g>
</svg>